<svg xmlns="http://www.w3.org/2000/svg" width="232.746" height="23.668" viewBox="0 0 232.746 23.668">
    <g id="Grupo_260" data-name="Grupo 260" transform="translate(-1026.533 -880.01)">
        <path id="Trazado_15" data-name="Trazado 15" d="M1036.466,888.755a5.616,5.616,0,0,0-1.606.262,1.137,1.137,0,0,0-.672.754,6.414,6.414,0,0,0-.18,1.8v12.982a6.41,6.41,0,0,0,.18,1.8,1.137,1.137,0,0,0,.672.754,5.612,5.612,0,0,0,1.606.262v.655q-1.672-.1-4.852-.1-3.442,0-5.081.1v-.655a5.614,5.614,0,0,0,1.606-.262,1.138,1.138,0,0,0,.672-.754,6.439,6.439,0,0,0,.181-1.8V891.574a6.442,6.442,0,0,0-.181-1.8,1.137,1.137,0,0,0-.688-.754,5.711,5.711,0,0,0-1.59-.262V888.1q1.606.1,5.081.1,3.179,0,4.852-.1Z" transform="translate(0 -4.811)" fill="#fff" />
        <path id="Trazado_16" data-name="Trazado 16" d="M1064.216,893.843v5.7a4.878,4.878,0,0,0,.278,1.917,1.443,1.443,0,0,0,.984.8,9.977,9.977,0,0,0,2.245.229v.721q-4.033-.1-6-.1-1.64,0-4.131.065l-1.049.033v-.655a5.708,5.708,0,0,0,1.59-.262,1.136,1.136,0,0,0,.688-.754,6.44,6.44,0,0,0,.18-1.8v-16.26a6.444,6.444,0,0,0-.18-1.8,1.137,1.137,0,0,0-.688-.754,5.723,5.723,0,0,0-1.59-.262v-.655q1.672.1,4.983.1l3.639-.033q.655-.032,1.508-.032,4.426,0,6.753,1.753a5.592,5.592,0,0,1,2.327,4.7,6.74,6.74,0,0,1-4.015,6.228,12.766,12.766,0,0,1-5.786,1.115Zm.737-12.949a1.267,1.267,0,0,0-.573.82,7.082,7.082,0,0,0-.164,1.77v9.7h1.409a3.914,3.914,0,0,0,3.671-1.7,9.006,9.006,0,0,0,1.016-4.622,9.14,9.14,0,0,0-.935-4.688,3.393,3.393,0,0,0-3.131-1.508A2.773,2.773,0,0,0,1064.953,880.895Z" transform="translate(-17.85)" fill="#fff" />
        <path id="Trazado_17" data-name="Trazado 17" d="M1129.607,906.653a5.262,5.262,0,0,1-1.77,1.377,5.806,5.806,0,0,1-2.458.459,4.939,4.939,0,0,1-2.885-.721,3.238,3.238,0,0,1-1.311-1.935l-.951-3.868a4.207,4.207,0,0,0-1.1-2.442,3.368,3.368,0,0,0-2.18-.606h-1.082v5.638a6.409,6.409,0,0,0,.18,1.8,1.133,1.133,0,0,0,.688.754,5.7,5.7,0,0,0,1.59.262v.655q-1.869-.1-5.344-.1-3.049,0-4.59.1v-.655a5.612,5.612,0,0,0,1.606-.262,1.139,1.139,0,0,0,.672-.754,6.45,6.45,0,0,0,.18-1.8V891.574a6.454,6.454,0,0,0-.18-1.8,1.139,1.139,0,0,0-.672-.754,5.616,5.616,0,0,0-1.606-.262V888.1q1.541.1,4.393.1l3.737-.033q.655-.032,1.475-.033,4.392,0,6.573,1.328a4.119,4.119,0,0,1,2.18,3.688,4.656,4.656,0,0,1-1.737,3.573q-1.738,1.541-5.8,1.967a4.874,4.874,0,0,1,.951.1,9.626,9.626,0,0,1,3.721,1.049,3.79,3.79,0,0,1,1.786,2.491l.689,2.917a3.372,3.372,0,0,0,.557,1.312,1.024,1.024,0,0,0,.819.393,2.052,2.052,0,0,0,1.409-.721Zm-13.112-17.669a1.23,1.23,0,0,0-.492.82,8.8,8.8,0,0,0-.131,1.77v6.688h1.409q2.426,0,3.327-1.246a7.4,7.4,0,0,0,0-7.081,3.582,3.582,0,0,0-3.032-1.18A2.044,2.044,0,0,0,1116.494,888.984Z" transform="translate(-48.69 -4.811)" fill="#fff" />
        <path id="Trazado_18" data-name="Trazado 18" d="M1179.479,888.163a8.863,8.863,0,0,1,3.868,3.508,10.6,10.6,0,0,1,1.377,5.524,10.8,10.8,0,0,1-1.409,5.557,9.685,9.685,0,0,1-3.934,3.737,12.138,12.138,0,0,1-5.737,1.328,13.254,13.254,0,0,1-5.8-1.2,8.853,8.853,0,0,1-3.868-3.507,10.6,10.6,0,0,1-1.377-5.524,10.8,10.8,0,0,1,1.409-5.557,9.677,9.677,0,0,1,3.934-3.737,12.138,12.138,0,0,1,5.737-1.328A13.265,13.265,0,0,1,1179.479,888.163Zm-8.933.656a8.241,8.241,0,0,0-2,3.508,17.125,17.125,0,0,0-.7,5.131,15.442,15.442,0,0,0,.786,5.146,7.984,7.984,0,0,0,2.147,3.425,4.438,4.438,0,0,0,3,1.2,4.171,4.171,0,0,0,3-1.262,8.247,8.247,0,0,0,2-3.508,17.13,17.13,0,0,0,.7-5.13,15.441,15.441,0,0,0-.787-5.146,8,8,0,0,0-2.147-3.426,4.443,4.443,0,0,0-3-1.2A4.17,4.17,0,0,0,1170.546,888.819Z" transform="translate(-80.927 -4.138)" fill="#fff" />
        <path id="Trazado_19" data-name="Trazado 19" d="M1239.077,892.033a16.448,16.448,0,0,0,.1,2.032h-.754a7.365,7.365,0,0,0-1.7-4.016,4.556,4.556,0,0,0-3.344-1.2h-1.213a4.168,4.168,0,0,0-1.278.147.982.982,0,0,0-.606.59,3.94,3.94,0,0,0-.181,1.393v6.688h1.541a2.632,2.632,0,0,0,2.279-1.065,6.064,6.064,0,0,0,1.032-2.476h.754q-.1,1.115-.1,2.557V898q0,1.475.2,3.868h-.755a5.2,5.2,0,0,0-1.033-2.54,2.867,2.867,0,0,0-2.377-1H1230.1v6.032a4.321,4.321,0,0,0,.312,1.868,1.657,1.657,0,0,0,1.032.853,8.991,8.991,0,0,0,2.164.295v.655q-2-.1-5.8-.1-3.507,0-5.179.1v-.655a5.614,5.614,0,0,0,1.606-.262,1.138,1.138,0,0,0,.672-.754,6.436,6.436,0,0,0,.18-1.8V891.574a6.44,6.44,0,0,0-.18-1.8,1.136,1.136,0,0,0-.688-.754,5.711,5.711,0,0,0-1.59-.262V888.1q3.409.1,10.162.1,4.589,0,6.523-.1A38.172,38.172,0,0,0,1239.077,892.033Z" transform="translate(-116.627 -4.811)" fill="#fff" />
        <path id="Trazado_20" data-name="Trazado 20" d="M1285.749,908.03q-2.132-.1-7.179-.1-6.753,0-10.162.1v-.655a5.612,5.612,0,0,0,1.606-.262,1.138,1.138,0,0,0,.672-.754,6.439,6.439,0,0,0,.181-1.8V891.574a6.442,6.442,0,0,0-.181-1.8,1.137,1.137,0,0,0-.688-.754,5.707,5.707,0,0,0-1.59-.262V888.1q3.409.1,10.162.1,4.589,0,6.523-.1a38.227,38.227,0,0,0-.229,3.934,16.468,16.468,0,0,0,.1,2.032h-.754a7.362,7.362,0,0,0-1.7-4.016,4.555,4.555,0,0,0-3.344-1.2h-1.213a4.168,4.168,0,0,0-1.279.147.982.982,0,0,0-.606.59,3.948,3.948,0,0,0-.18,1.393v6.688h1.54a2.632,2.632,0,0,0,2.279-1.065,6.061,6.061,0,0,0,1.032-2.476h.754q-.1,1.115-.1,2.557V898q0,1.475.2,3.868h-.755a5.2,5.2,0,0,0-1.032-2.54,2.868,2.868,0,0,0-2.377-1h-1.54v6.818a3.949,3.949,0,0,0,.18,1.393.981.981,0,0,0,.606.59,4.153,4.153,0,0,0,1.279.148h1.41a4.9,4.9,0,0,0,3.655-1.344,8.321,8.321,0,0,0,1.852-4.524h.754a22.944,22.944,0,0,0-.1,2.36Q1285.519,905.637,1285.749,908.03Z" transform="translate(-143.859 -4.811)" fill="#fff" />
        <path id="Trazado_21" data-name="Trazado 21" d="M1329.567,887.294a9.525,9.525,0,0,1,2.016.885q.361.2.639.328a1.164,1.164,0,0,0,.475.131.507.507,0,0,0,.459-.344,3.931,3.931,0,0,0,.262-1.1h.754q-.165,1.967-.164,6.818h-.754a8.162,8.162,0,0,0-1.9-4.639,5.207,5.207,0,0,0-4.032-1.688,4.412,4.412,0,0,0-2.638.721,2.207,2.207,0,0,0-1,1.869,2.684,2.684,0,0,0,.541,1.623,6.074,6.074,0,0,0,1.426,1.36q.885.623,2.59,1.639l.721.426a35.279,35.279,0,0,1,3.213,2.016,8.328,8.328,0,0,1,2.065,2.131,4.889,4.889,0,0,1,.819,2.77,4.632,4.632,0,0,1-2.229,4.13,10.652,10.652,0,0,1-5.868,1.443,9.515,9.515,0,0,1-2.721-.344,14.568,14.568,0,0,1-2.327-.934,3.292,3.292,0,0,0-1.147-.393.506.506,0,0,0-.459.344,3.91,3.91,0,0,0-.263,1.1h-.754q.131-1.836.131-8h.755a9.33,9.33,0,0,0,1.885,5.475,5.724,5.724,0,0,0,4.671,2,4.354,4.354,0,0,0,2.557-.755,2.54,2.54,0,0,0,1.082-2.229,3,3,0,0,0-1.016-2.262,20.994,20.994,0,0,0-3.475-2.393,23.865,23.865,0,0,1-4.77-3.376,5.089,5.089,0,0,1-1.655-3.77,4.422,4.422,0,0,1,2.115-3.934,9.772,9.772,0,0,1,5.426-1.377A8.843,8.843,0,0,1,1329.567,887.294Z" transform="translate(-174.122 -4.138)" fill="#fff" />
        <path id="Trazado_22" data-name="Trazado 22" d="M1374.362,888.755a5.61,5.61,0,0,0-1.606.262,1.137,1.137,0,0,0-.672.754,6.426,6.426,0,0,0-.18,1.8v12.982a6.422,6.422,0,0,0,.18,1.8,1.137,1.137,0,0,0,.672.754,5.605,5.605,0,0,0,1.606.262v.655q-1.672-.1-4.851-.1-3.442,0-5.081.1v-.655a5.614,5.614,0,0,0,1.606-.262,1.139,1.139,0,0,0,.672-.754,6.443,6.443,0,0,0,.18-1.8V891.574a6.446,6.446,0,0,0-.18-1.8,1.137,1.137,0,0,0-.688-.754,5.71,5.71,0,0,0-1.59-.262V888.1q1.605.1,5.081.1,3.179,0,4.851-.1Z" transform="translate(-200.97 -4.811)" fill="#fff" />
        <path id="Trazado_23" data-name="Trazado 23" d="M1411.242,888.163a8.856,8.856,0,0,1,3.868,3.508,10.6,10.6,0,0,1,1.377,5.524,10.8,10.8,0,0,1-1.41,5.557,9.679,9.679,0,0,1-3.934,3.737,12.138,12.138,0,0,1-5.737,1.328,13.256,13.256,0,0,1-5.8-1.2,8.853,8.853,0,0,1-3.868-3.507,10.594,10.594,0,0,1-1.377-5.524,10.8,10.8,0,0,1,1.41-5.557,9.675,9.675,0,0,1,3.934-3.737,12.135,12.135,0,0,1,5.736-1.328A13.264,13.264,0,0,1,1411.242,888.163Zm-8.933.656a8.24,8.24,0,0,0-2,3.508,17.121,17.121,0,0,0-.7,5.131,15.439,15.439,0,0,0,.787,5.146,7.992,7.992,0,0,0,2.147,3.425,4.439,4.439,0,0,0,3,1.2,4.17,4.17,0,0,0,3-1.262,8.241,8.241,0,0,0,2-3.508,17.13,17.13,0,0,0,.705-5.13,15.432,15.432,0,0,0-.787-5.146,8,8,0,0,0-2.147-3.426,4.442,4.442,0,0,0-3-1.2A4.169,4.169,0,0,0,1402.309,888.819Z" transform="translate(-218.771 -4.138)" fill="#fff" />
        <path id="Trazado_24" data-name="Trazado 24" d="M1474.987,888.755a4.194,4.194,0,0,0-1.589.492,1.66,1.66,0,0,0-.689,1.049,9.836,9.836,0,0,0-.18,2.2v15.6l-.885-.033-.852.033L1457.679,891.8v11.834a6.876,6.876,0,0,0,.262,2.18,1.8,1.8,0,0,0,.951,1.065,7.2,7.2,0,0,0,2.163.492v.655q-1.475-.1-3.737-.1-1.8,0-2.852.1v-.655a4.194,4.194,0,0,0,1.59-.492,1.66,1.66,0,0,0,.688-1.049,9.824,9.824,0,0,0,.18-2.2V891.574a6.444,6.444,0,0,0-.18-1.8,1.136,1.136,0,0,0-.688-.754,5.709,5.709,0,0,0-1.59-.262V888.1q1.048.1,2.852.1,2.327,0,4-.1l10.457,12.982v-8.589a6.88,6.88,0,0,0-.262-2.18,1.792,1.792,0,0,0-.967-1.065,7.355,7.355,0,0,0-2.147-.492V888.1q1.442.1,3.737.1,1.836,0,2.852-.1Z" transform="translate(-254.521 -4.811)" fill="#fff" />
        <path id="Trazado_25" data-name="Trazado 25" d="M1524.907,907.279v.655q-1.574-.1-4.294-.1-3.509,0-5.18.1v-.655a4.092,4.092,0,0,0,1.606-.344.973.973,0,0,0,.524-.934,3.58,3.58,0,0,0-.426-1.475l-1.639-3.737h-6.884l-.394.885a9.444,9.444,0,0,0-.918,3.377,1.888,1.888,0,0,0,.721,1.639,3.925,3.925,0,0,0,2.131.59v.655q-1.869-.1-3.77-.1a26.341,26.341,0,0,0-2.656.1v-.655a2.589,2.589,0,0,0,1.459-1,12.015,12.015,0,0,0,1.427-2.508l6.917-15.833a6.608,6.608,0,0,0,.754.033,6.1,6.1,0,0,0,.754-.033l7.8,17.243Q1523.792,907.214,1524.907,907.279Zm-9.7-7.147-3.147-7.179-3.147,7.179Z" transform="translate(-283.821 -4.715)" fill="#fff" />
        <path id="Trazado_26" data-name="Trazado 26" d="M1568.025,888.755a5.615,5.615,0,0,0-1.606.262,1.137,1.137,0,0,0-.672.754,6.427,6.427,0,0,0-.18,1.8v13.375a4.672,4.672,0,0,0,.18,1.507,1.037,1.037,0,0,0,.607.656,3.76,3.76,0,0,0,1.279.164h1.278a4.812,4.812,0,0,0,3.639-1.557,9.255,9.255,0,0,0,2-5.032h.755q-.1,1.081-.1,2.688,0,2.033.23,4.655-2.132-.1-7.179-.1-6.753,0-10.162.1v-.655a5.614,5.614,0,0,0,1.606-.262,1.139,1.139,0,0,0,.672-.754,6.437,6.437,0,0,0,.18-1.8V891.574a6.441,6.441,0,0,0-.18-1.8,1.137,1.137,0,0,0-.688-.754,5.71,5.71,0,0,0-1.59-.262V888.1q1.672.1,5.179.1,3.081,0,4.754-.1Z" transform="translate(-316.154 -4.811)" fill="#fff" />
    </g>
</svg>